<svg xmlns:mydata="http://www.w3.org/2000/svg" mydata:contrastcolor="ffffff" mydata:template="InvertedHex1" mydata:presentation="2.5" mydata:layouttype="undefined" mydata:specialfontid="undefined" mydata:id1="341" mydata:id2="666" mydata:companyname="Unblock for Windows" mydata:companytagline="" version="1.1" xmlns="http://www.w3.org/2000/svg" xmlns:xlink="http://www.w3.org/1999/xlink" viewBox="65 148.6138128945858 420 172.7723742108284" class="watermark-logo" style="opacity: 1;"><g fill="#101820" fill-rule="none" stroke="none" stroke-width="1" stroke-linecap="butt" stroke-linejoin="miter" stroke-miterlimit="10" stroke-dasharray="" stroke-dashoffset="0" font-family="none" font-weight="none" font-size="none" text-anchor="none" style="mix-blend-mode: normal"><g data-paper-data="{&quot;isGlobalGroup&quot;:true,&quot;bounds&quot;:{&quot;x&quot;:65,&quot;y&quot;:148.6138128945858,&quot;width&quot;:420,&quot;height&quot;:172.7723742108284}}"><g data-paper-data="{&quot;isPrimaryText&quot;:true}" fill-rule="nonzero"><path d="M74.8833,321.34601c2.20968,0 4.13813,-0.56246 5.74517,-1.68739c1.24546,-0.8437 2.20968,-2.08915 2.93285,-3.61584c1.20528,-2.57126 1.20528,-5.06218 1.20528,-5.18271v-18.60149c0,-0.68299 -0.52229,-1.1651 -1.1651,-1.1651c-0.64282,0 -1.12493,0.48211 -1.12493,1.1651v18.60149c0,0.04018 -0.04018,2.08915 -0.96422,4.1783c-1.24546,2.65162 -3.53549,3.97742 -6.62904,3.97742c-3.13373,0 -5.38359,-1.28563 -6.58887,-3.89707c-0.96422,-2.04898 -1.04458,-4.13813 -1.04458,-4.21848v0v-18.64167c0,-0.68299 -0.48211,-1.1651 -1.08475,-1.1651c-0.68299,0 -1.1651,0.48211 -1.1651,1.1651v18.64167c0,0.20088 0.04018,4.78095 3.0132,7.8745c1.68739,1.68739 4.05778,2.57126 6.8701,2.57126z" data-paper-data="{&quot;glyphName&quot;:&quot;U&quot;,&quot;glyphIndex&quot;:0,&quot;firstGlyphOfWord&quot;:true,&quot;word&quot;:1}" style="fill: rgb(255, 255, 255);"></path><path d="M108.51062,321.22548c0.12053,0 0.24106,-0.04018 0.36158,-0.04018c0.48211,-0.1607 0.80352,-0.60264 0.80352,-1.12493v-27.8018c0,-0.64282 -0.52229,-1.1651 -1.1651,-1.1651c-0.60264,0 -1.12493,0.52229 -1.12493,1.1651v24.10561l-6.0264,-8.75837c-0.32141,-0.56246 -1.08475,-0.68299 -1.56686,-0.28123c-0.52229,0.32141 -0.64282,1.04458 -0.32141,1.56686l8.11555,11.81175c0.20088,0.36158 0.56246,0.52229 0.92405,0.52229zM89.46719,321.22548c0.64282,0 1.12493,-0.52229 1.12493,-1.1651v-24.10561l6.10675,8.83872c0.36158,0.56246 1.08475,0.68299 1.60704,0.32141c0.48211,-0.36158 0.60264,-1.08475 0.28123,-1.60704l-8.19591,-11.8921c-0.24106,-0.44194 -0.80352,-0.60264 -1.28563,-0.48211c-0.48211,0.1607 -0.80352,0.60264 -0.80352,1.12493v27.8018c0,0.64282 0.52229,1.1651 1.1651,1.1651z" data-paper-data="{&quot;glyphName&quot;:&quot;N&quot;,&quot;glyphIndex&quot;:1,&quot;word&quot;:1}" style="fill: rgb(255, 255, 255);"></path><path d="M130.88866,305.39614c-0.12053,-0.04018 -0.20088,-0.08035 -0.28123,-0.12053c1.56686,-0.96422 3.37478,-2.8525 3.37478,-6.42816c0,-1.72757 -0.40176,-3.29443 -1.24546,-4.49971c-0.68299,-0.96422 -1.64722,-1.76774 -2.8525,-2.33021c-1.88827,-0.88387 -3.81672,-0.92405 -3.89707,-0.92405h-11.24928c-0.60264,0 -1.12493,0.52229 -1.12493,1.1651v27.8018c0,0.64282 0.52229,1.1651 1.12493,1.1651h11.12875c0,0 0,0 0.08035,0c0.36158,0 2.49091,-0.04018 4.58007,-0.96422c1.28563,-0.56246 2.29003,-1.36598 3.05338,-2.41056c0.92405,-1.20528 1.36598,-2.69179 1.36598,-4.45954c0,-4.62024 -2.20968,-6.91027 -4.05778,-7.99503zM129.60302,318.13193c-1.72757,0.76334 -3.49531,0.76334 -3.65602,0.76334h-0.08035v0v0h-9.96365v-12.41439h5.46394c0.64282,0 1.1651,-0.56246 1.1651,-1.1651c0,-0.64282 -0.52229,-1.1651 -1.1651,-1.1651h-5.46394v-10.72699h10.08418c0.04018,0 1.52669,0 2.97302,0.68299c1.8481,0.96422 2.73197,2.49091 2.73197,4.74077c0,2.12933 -0.76334,3.61584 -2.45074,4.49971c-1.32581,0.76334 -2.81232,0.80352 -3.09355,0.80352c-0.08035,0 -0.12053,0 -0.12053,0c-0.60264,0.04018 -1.12493,0.56246 -1.08475,1.1651c0,0.64282 0.48211,1.12493 1.12493,1.1651c0,0 0,0 0.08035,0c0.32141,0 2.0088,0.04018 3.57566,0.92405c1.92845,1.12493 2.93285,3.13373 2.93285,5.98623c0,2.29003 -1.0044,3.81672 -3.05338,4.74077z" data-paper-data="{&quot;glyphName&quot;:&quot;B&quot;,&quot;glyphIndex&quot;:2,&quot;word&quot;:1}" style="fill: rgb(255, 255, 255);"></path><path d="M153.30687,321.22548c0.60264,0 1.1651,-0.52229 1.1651,-1.1651c0,-0.64282 -0.56246,-1.12493 -1.1651,-1.12493h-15.26688c-0.64282,0 -1.1651,0.48211 -1.1651,1.12493c0,0.64282 0.52229,1.1651 1.1651,1.1651zM138.03998,317.73017c0.64282,0 1.12493,-0.48211 1.12493,-1.12493v-24.34666c0,-0.64282 -0.48211,-1.1651 -1.12493,-1.1651c-0.64282,0 -1.1651,0.52229 -1.1651,1.1651v24.34666c0,0.64282 0.52229,1.12493 1.1651,1.12493z" data-paper-data="{&quot;glyphName&quot;:&quot;L&quot;,&quot;glyphIndex&quot;:3,&quot;word&quot;:1}" style="fill: rgb(255, 255, 255);"></path><path d="M168.73446,321.34601c3.77654,0 6.66922,-1.28563 8.59767,-3.81672c1.04458,-1.28563 1.80792,-2.93285 2.29003,-4.78095c0.44194,-1.88827 0.68299,-4.09795 0.68299,-6.58887c0,-5.14253 -0.88387,-8.83872 -2.69179,-11.32963c-1.0044,-1.28563 -2.24986,-2.29003 -3.77654,-2.89267c-1.40616,-0.68299 -3.13373,-0.96422 -5.10235,-0.96422c-1.96862,0 -3.65602,0.24106 -5.06218,0.80352c-1.52669,0.60264 -2.77214,1.48651 -3.77654,2.73197c-1.0044,1.20528 -1.68739,2.81232 -2.12933,4.78095c-0.44194,1.92845 -0.68299,4.13813 -0.68299,6.8701c0,5.38359 1.0044,9.20031 3.05338,11.65104c1.88827,2.37038 4.70059,3.53549 8.59767,3.53549zM168.73446,293.30316c3.29443,0 5.58447,0.96422 7.07098,2.97302c1.48651,2.08915 2.20968,5.30323 2.20968,9.8833c0,4.41936 -0.8437,7.75397 -2.41056,9.8833c-1.52669,2.0088 -3.77654,2.97302 -6.8701,2.97302c-3.1739,0 -5.46394,-0.8437 -6.91027,-2.65162c-1.60704,-2.08915 -2.45074,-5.38359 -2.45074,-10.20471c0,-4.8613 0.76334,-8.19591 2.29003,-10.20471c1.40616,-1.80792 3.65602,-2.65162 7.07098,-2.65162z" data-paper-data="{&quot;glyphName&quot;:&quot;O&quot;,&quot;glyphIndex&quot;:4,&quot;word&quot;:1}" style="fill: rgb(255, 255, 255);"></path><path d="M204.29022,302.54364c0.64282,0 1.12493,-0.48211 1.12493,-1.12493v0c0,0 0,0 0,-0.04018v0v0c0,-0.32141 -0.04018,-4.37919 -2.97302,-7.39239c-2.0088,-2.0088 -4.8613,-3.05338 -8.43696,-3.05338c-2.65162,0 -4.8613,0.56246 -6.58887,1.68739c-1.48651,1.04458 -2.69179,2.45074 -3.53549,4.29883c-1.36598,3.13373 -1.36598,6.78975 -1.36598,9.24048c0,2.29003 0,6.06658 1.40616,9.24048c0.88387,1.8481 2.04898,3.25426 3.53549,4.29883c1.72757,1.12493 3.93725,1.68739 6.54869,1.68739c5.90587,0 8.67802,-2.89267 10.00383,-5.30323c1.40616,-2.61144 1.40616,-5.18271 1.40616,-5.30323c0,-0.64282 -0.48211,-1.12493 -1.12493,-1.12493c-0.64282,0 -1.20528,0.48211 -1.20528,1.12493c0,0.04018 0,2.08915 -1.12493,4.1783c-1.44634,2.73197 -4.13813,4.09795 -7.95485,4.09795c-3.97742,0 -6.58887,-1.48651 -7.95485,-4.58007c-1.20528,-2.77214 -1.20528,-6.18711 -1.20528,-8.31643c0,-6.26746 0.68299,-12.8965 9.16013,-12.8965c2.93285,0 5.18271,0.76334 6.74957,2.37038c0.96422,0.92405 1.68739,2.20968 2.04898,3.73637c0.28123,1.1651 0.28123,2.0088 0.28123,2.0088v0v0v0c0,0.68299 0.56246,1.1651 1.20528,1.1651z" data-paper-data="{&quot;glyphName&quot;:&quot;C&quot;,&quot;glyphIndex&quot;:5,&quot;word&quot;:1}" style="fill: rgb(255, 255, 255);"></path><path d="M229.36005,319.37739l-11.85192,-15.26688l9.60207,-11.08858c0.44194,-0.48211 0.36158,-1.20528 -0.12053,-1.64722c-0.48211,-0.44194 -1.20528,-0.36158 -1.64722,0.1607l-15.26688,17.67744c-0.1607,0.20088 -0.28123,0.48211 -0.28123,0.72317v10.16453c0,0.60264 0.52229,1.12493 1.1651,1.12493c0.64282,0 1.12493,-0.52229 1.12493,-1.12493v-9.72259l3.93725,-4.49971l11.53051,14.94548c0.20088,0.28123 0.52229,0.40176 0.88387,0.40176c0.24106,0 0.48211,-0.04018 0.68299,-0.20088c0.52229,-0.40176 0.60264,-1.12493 0.24106,-1.64722zM210.95944,304.59262c0.64282,0 1.12493,-0.48211 1.12493,-1.12493v-11.20911c0,-0.60264 -0.48211,-1.1651 -1.12493,-1.1651c-0.64282,0 -1.1651,0.56246 -1.1651,1.1651v11.20911c0,0.64282 0.52229,1.12493 1.1651,1.12493z" data-paper-data="{&quot;glyphName&quot;:&quot;K&quot;,&quot;glyphIndex&quot;:6,&quot;lastGlyphOfWord&quot;:true,&quot;word&quot;:1}" style="fill: rgb(255, 255, 255);"></path><path d="M252.26038,304.91402c0.64282,0 1.20528,-0.48211 1.20528,-1.12493c0,-0.64282 -0.56246,-1.20528 -1.20528,-1.20528h-10.20471v-9.24048h15.62847c0.60264,0 1.1651,-0.48211 1.1651,-1.12493c0,-0.64282 -0.56246,-1.12493 -1.1651,-1.12493h-16.79357c-0.60264,0 -1.1651,0.48211 -1.1651,1.12493v11.57069c0,0.64282 0.56246,1.12493 1.1651,1.12493zM240.89057,321.22548c0.64282,0 1.1651,-0.56246 1.1651,-1.1651v-11.81175c0,-0.60264 -0.52229,-1.12493 -1.1651,-1.12493c-0.60264,0 -1.1651,0.52229 -1.1651,1.12493v11.81175c0,0.60264 0.56246,1.1651 1.1651,1.1651z" data-paper-data="{&quot;glyphName&quot;:&quot;F&quot;,&quot;glyphIndex&quot;:7,&quot;firstGlyphOfWord&quot;:true,&quot;word&quot;:2}" style="fill: rgb(255, 255, 255);"></path><path d="M270.8217,321.34601c3.77654,0 6.66922,-1.28563 8.59767,-3.81672c1.04458,-1.28563 1.80792,-2.93285 2.29003,-4.78095c0.44194,-1.88827 0.68299,-4.09795 0.68299,-6.58887c0,-5.14253 -0.88387,-8.83872 -2.69179,-11.32963c-1.0044,-1.28563 -2.24986,-2.29003 -3.77654,-2.89267c-1.40616,-0.68299 -3.13373,-0.96422 -5.10235,-0.96422c-1.96862,0 -3.65602,0.24106 -5.06218,0.80352c-1.52669,0.60264 -2.77214,1.48651 -3.77654,2.73197c-1.0044,1.20528 -1.68739,2.81232 -2.12933,4.78095c-0.44194,1.92845 -0.68299,4.13813 -0.68299,6.8701c0,5.38359 1.0044,9.20031 3.05338,11.65104c1.88827,2.37038 4.70059,3.53549 8.59767,3.53549zM270.8217,293.30316c3.29443,0 5.58447,0.96422 7.07098,2.97302c1.48651,2.08915 2.20968,5.30323 2.20968,9.8833c0,4.41936 -0.8437,7.75397 -2.41056,9.8833c-1.52669,2.0088 -3.77654,2.97302 -6.8701,2.97302c-3.1739,0 -5.46394,-0.8437 -6.91027,-2.65162c-1.60704,-2.08915 -2.45074,-5.38359 -2.45074,-10.20471c0,-4.8613 0.76334,-8.19591 2.29003,-10.20471c1.40616,-1.80792 3.65602,-2.65162 7.07098,-2.65162z" data-paper-data="{&quot;glyphName&quot;:&quot;O&quot;,&quot;glyphIndex&quot;:8,&quot;word&quot;:2}" style="fill: rgb(255, 255, 255);"></path><path d="M308.10503,319.29703l-8.59767,-9.32083c-0.20088,-0.20088 -0.52229,-0.36158 -0.80352,-0.36158h-10.24488v-16.19093h8.63784v0c0,0 0.92405,0 2.1695,0.28123c1.08475,0.28123 2.61144,0.8437 3.8569,2.04898c1.36598,1.36598 2.04898,3.33461 2.04898,5.74517c0,2.97302 -0.80352,5.18271 -2.49091,6.58887c-0.44194,0.40176 -0.56246,1.1651 -0.1607,1.64722c0.44194,0.44194 1.12493,0.52229 1.64722,0.12053c1.0044,-0.88387 1.80792,-1.92845 2.37038,-3.1739c0.64282,-1.44634 0.96422,-3.21408 0.96422,-5.18271c0,-3.09355 -0.92405,-5.54429 -2.77214,-7.35221c-3.05338,-3.0132 -7.35221,-3.05338 -7.63344,-3.05338h-9.80295c-0.64282,0 -1.1651,0.52229 -1.1651,1.1651v27.84197c0,0.60264 0.52229,1.12493 1.1651,1.12493c0.60264,0 1.1651,-0.52229 1.1651,-1.12493v-8.15573h9.68242l8.27626,8.8789c0.20088,0.28123 0.52229,0.40176 0.80352,0.40176c0.32141,0 0.56246,-0.08035 0.80352,-0.32141c0.48211,-0.40176 0.48211,-1.1651 0.08035,-1.60704z" data-paper-data="{&quot;glyphName&quot;:&quot;R&quot;,&quot;glyphIndex&quot;:9,&quot;lastGlyphOfWord&quot;:true,&quot;word&quot;:2}" style="fill: rgb(255, 255, 255);"></path><path d="M341.73235,321.22548h0.04018c0.52229,-0.04018 0.96422,-0.40176 1.08475,-0.8437l6.8701,-27.8018c0.1607,-0.68299 -0.20088,-1.28563 -0.80352,-1.44634c-0.64282,-0.12053 -1.24546,0.24106 -1.44634,0.88387l-6.06658,24.34666l-6.18711,-15.30706c-0.24106,-0.56246 -0.88387,-0.88387 -1.48651,-0.60264c-0.60264,0.20088 -0.88387,0.88387 -0.64282,1.48651l7.55309,18.60149c0.1607,0.44194 0.60264,0.68299 1.08475,0.68299zM326.46547,321.22548c0.40176,0 0.8437,-0.24106 1.0044,-0.68299l5.70499,-13.61967c0.20088,-0.60264 -0.04018,-1.28563 -0.64282,-1.48651c-0.60264,-0.28123 -1.24546,0.04018 -1.52669,0.60264l-4.29883,10.36541l-6.06658,-24.38684c-0.1607,-0.64282 -0.76334,-1.0044 -1.36598,-0.88387c-0.64282,0.1607 -1.04458,0.76334 -0.88387,1.44634l6.95045,27.8018c0.12053,0.44194 0.52229,0.80352 1.0044,0.8437c0,0 0.08035,0 0.12053,0z" data-paper-data="{&quot;glyphName&quot;:&quot;W&quot;,&quot;glyphIndex&quot;:10,&quot;firstGlyphOfWord&quot;:true,&quot;word&quot;:3}" style="fill: rgb(255, 255, 255);"></path><path d="M353.10216,321.22548c0.60264,0 1.12493,-0.48211 1.12493,-1.1651v-27.8018c0,-0.68299 -0.52229,-1.1651 -1.12493,-1.1651c-0.64282,0 -1.1651,0.48211 -1.1651,1.1651v27.8018c0,0.68299 0.52229,1.1651 1.1651,1.1651z" data-paper-data="{&quot;glyphName&quot;:&quot;I&quot;,&quot;glyphIndex&quot;:11,&quot;word&quot;:3}" style="fill: rgb(255, 255, 255);"></path><path d="M379.41745,321.22548c0.12053,0 0.24106,-0.04018 0.36158,-0.04018c0.48211,-0.1607 0.80352,-0.60264 0.80352,-1.12493v-27.8018c0,-0.64282 -0.52229,-1.1651 -1.1651,-1.1651c-0.60264,0 -1.12493,0.52229 -1.12493,1.1651v24.10561l-6.0264,-8.75837c-0.32141,-0.56246 -1.08475,-0.68299 -1.56686,-0.28123c-0.52229,0.32141 -0.64282,1.04458 -0.32141,1.56686l8.11555,11.81175c0.20088,0.36158 0.56246,0.52229 0.92405,0.52229zM360.37402,321.22548c0.64282,0 1.12493,-0.52229 1.12493,-1.1651v-24.10561l6.10675,8.83872c0.36158,0.56246 1.08475,0.68299 1.60704,0.32141c0.48211,-0.36158 0.60264,-1.08475 0.28123,-1.60704l-8.19591,-11.8921c-0.24106,-0.44194 -0.80352,-0.60264 -1.28563,-0.48211c-0.48211,0.1607 -0.80352,0.60264 -0.80352,1.12493v27.8018c0,0.64282 0.52229,1.1651 1.1651,1.1651z" data-paper-data="{&quot;glyphName&quot;:&quot;N&quot;,&quot;glyphIndex&quot;:12,&quot;word&quot;:3}" style="fill: rgb(255, 255, 255);"></path><path d="M394.28257,321.22548c0.12053,0 2.93285,-0.04018 5.78535,-1.92845c1.68739,-1.1651 2.97302,-2.65162 3.93725,-4.58007c1.1651,-2.33021 1.72757,-5.22288 1.72757,-8.55749c0,-3.37478 -0.64282,-6.22728 -1.8481,-8.55749c-1.04458,-1.92845 -2.49091,-3.49531 -4.25866,-4.62024c-3.0132,-1.8481 -6.06658,-1.88827 -6.18711,-1.88827h-7.91467c-0.64282,0 -1.12493,0.52229 -1.12493,1.1651v27.8018c0,0.64282 0.48211,1.1651 1.12493,1.1651zM386.68931,318.93545v-25.55194h6.74957c0.04018,0 2.57126,0.04018 5.022,1.64722c3.29443,2.08915 4.98183,5.8657 4.98183,11.12875c0,5.34341 -1.56686,9.0396 -4.58007,11.16893c-2.20968,1.56686 -4.53989,1.60704 -4.58007,1.60704z" data-paper-data="{&quot;glyphName&quot;:&quot;D&quot;,&quot;glyphIndex&quot;:13,&quot;word&quot;:3}" style="fill: rgb(255, 255, 255);"></path><path d="M419.91487,321.34601c3.77654,0 6.66922,-1.28563 8.59767,-3.81672c1.04458,-1.28563 1.80792,-2.93285 2.29003,-4.78095c0.44194,-1.88827 0.68299,-4.09795 0.68299,-6.58887c0,-5.14253 -0.88387,-8.83872 -2.69179,-11.32963c-1.0044,-1.28563 -2.24986,-2.29003 -3.77654,-2.89267c-1.40616,-0.68299 -3.13373,-0.96422 -5.10235,-0.96422c-1.96862,0 -3.65602,0.24106 -5.06218,0.80352c-1.52669,0.60264 -2.77214,1.48651 -3.77654,2.73197c-1.0044,1.20528 -1.68739,2.81232 -2.12933,4.78095c-0.44194,1.92845 -0.68299,4.13813 -0.68299,6.8701c0,5.38359 1.0044,9.20031 3.05338,11.65104c1.88827,2.37038 4.70059,3.53549 8.59767,3.53549zM419.91487,293.30316c3.29443,0 5.58447,0.96422 7.07098,2.97302c1.48651,2.08915 2.20968,5.30323 2.20968,9.8833c0,4.41936 -0.8437,7.75397 -2.41056,9.8833c-1.52669,2.0088 -3.77654,2.97302 -6.8701,2.97302c-3.1739,0 -5.46394,-0.8437 -6.91027,-2.65162c-1.60704,-2.08915 -2.45074,-5.38359 -2.45074,-10.20471c0,-4.8613 0.76334,-8.19591 2.29003,-10.20471c1.40616,-1.80792 3.65602,-2.65162 7.07098,-2.65162z" data-paper-data="{&quot;glyphName&quot;:&quot;O&quot;,&quot;glyphIndex&quot;:14,&quot;word&quot;:3}" style="fill: rgb(255, 255, 255);"></path><path d="M457.31873,321.22548h0.04018c0.52229,-0.04018 0.96422,-0.40176 1.08475,-0.8437l6.8701,-27.8018c0.1607,-0.68299 -0.20088,-1.28563 -0.80352,-1.44634c-0.64282,-0.12053 -1.24546,0.24106 -1.44634,0.88387l-6.06658,24.34666l-6.18711,-15.30706c-0.24106,-0.56246 -0.88387,-0.88387 -1.48651,-0.60264c-0.60264,0.20088 -0.88387,0.88387 -0.64282,1.48651l7.55309,18.60149c0.1607,0.44194 0.60264,0.68299 1.08475,0.68299zM442.05185,321.22548c0.40176,0 0.8437,-0.24106 1.0044,-0.68299l5.70499,-13.61967c0.20088,-0.60264 -0.04018,-1.28563 -0.64282,-1.48651c-0.60264,-0.28123 -1.24546,0.04018 -1.52669,0.60264l-4.29883,10.36541l-6.06658,-24.38684c-0.1607,-0.64282 -0.76334,-1.0044 -1.36598,-0.88387c-0.64282,0.1607 -1.04458,0.76334 -0.88387,1.44634l6.95045,27.8018c0.12053,0.44194 0.52229,0.80352 1.0044,0.8437c0,0 0.08035,0 0.12053,0z" data-paper-data="{&quot;glyphName&quot;:&quot;W&quot;,&quot;glyphIndex&quot;:15,&quot;word&quot;:3}" style="fill: rgb(255, 255, 255);"></path><path d="M485,299.0885v-0.04018v0c0,-0.36158 -0.12053,-2.1695 -1.12493,-4.0176c-1.04458,-1.8481 -3.21408,-4.05778 -7.67362,-4.05778c-1.92845,0 -3.61584,0.40176 -4.90147,1.04458c-1.1651,0.64282 -2.08915,1.48651 -2.73197,2.57126c-0.52229,0.8437 -0.80352,1.76774 -1.0044,2.77214c-0.12053,0.80352 -0.12053,1.44634 -0.12053,1.72757c0,0.60264 0,2.33021 0.88387,4.05778c0.48211,1.04458 1.20528,1.88827 2.12933,2.57126c1.04458,0.80352 2.37038,1.28563 3.97742,1.44634c0.04018,0.04018 0.12053,0.04018 0.1607,0.04018c0.56246,0 1.04458,-0.44194 1.12493,-1.0044c0.08035,-0.60264 -0.36158,-1.20528 -0.96422,-1.28563c-4.13813,-0.52229 -4.98183,-3.45514 -4.98183,-5.82552c0,-2.61144 1.12493,-5.82552 6.42816,-5.82552c2.65162,0 4.58007,1.0044 5.62464,2.8525c0.8437,1.44634 0.8437,2.97302 0.88387,3.0132h-0.04018h0.04018c0,0.64282 0.52229,1.12493 1.1651,1.12493c0.60264,0 1.12493,-0.52229 1.12493,-1.1651zM484.23666,309.45391c-0.44194,-1.04458 -1.12493,-1.92845 -1.96862,-2.57126c-0.96422,-0.8437 -2.20968,-1.40616 -3.61584,-1.64722c-0.68299,-0.12053 -1.24546,0.24106 -1.36598,0.88387c-0.1607,0.64282 0.24106,1.24546 0.88387,1.36598c3.0132,0.56246 4.49971,2.61144 4.49971,6.0264c0,3.69619 -2.08915,5.54429 -6.42816,5.54429c-2.73197,0 -4.58007,-0.88387 -5.66482,-2.73197c-0.80352,-1.36598 -0.80352,-2.77214 -0.80352,-2.81232v0v0c0,-0.64282 -0.56246,-1.20528 -1.1651,-1.20528c-0.64282,0 -1.1651,0.56246 -1.1651,1.20528v0v0v0v0c0,0.08035 0.04018,2.0088 1.12493,3.93725c1.0044,1.76774 3.1739,3.89707 7.67362,3.89707c1.92845,0 3.61584,-0.36158 4.8613,-0.96422c1.1651,-0.60264 2.12933,-1.36598 2.81232,-2.45074c1.08475,-1.80792 1.08475,-3.69619 1.08475,-4.41936c0,-0.64282 0,-2.33021 -0.76334,-4.05778z" data-paper-data="{&quot;glyphName&quot;:&quot;S&quot;,&quot;glyphIndex&quot;:16,&quot;lastGlyphOfWord&quot;:true,&quot;word&quot;:3}" style="fill: rgb(255, 255, 255);"></path></g><g data-paper-data="{&quot;isIcon&quot;:&quot;true&quot;,&quot;selectedEffects&quot;:{&quot;container&quot;:&quot;&quot;,&quot;transformation&quot;:&quot;&quot;,&quot;pattern&quot;:&quot;&quot;},&quot;fillRule&quot;:&quot;evenodd&quot;,&quot;fillRuleOriginal&quot;:&quot;evenodd&quot;,&quot;iconType&quot;:&quot;icon&quot;,&quot;rawIconId&quot;:&quot;doaHHeTSl_6y97mFBk7cbrj7LoHLEuZN2NRxe3auol&quot;,&quot;source&quot;:&quot;ai&quot;,&quot;iconStyle&quot;:&quot;standalone&quot;,&quot;bounds&quot;:{&quot;x&quot;:229.44886237468904,&quot;y&quot;:148.6138128945858,&quot;width&quot;:91.10227525062191,&quot;height&quot;:119.78343217907019},&quot;suitableAsStandaloneIcon&quot;:true}" fill-rule="evenodd"><path d="M263.62452,157.41647c1.21515,-4.32516 4.73355,-7.69971 8.97043,-8.60368c1.18263,-0.25232 3.43699,-0.26709 4.67343,-0.03045c3.78183,0.72352 7.09202,3.43936 8.66465,7.10829c0.86141,2.00995 0.87475,2.16088 0.93487,10.52113l0.05428,7.55801l-0.26881,-0.08539c-0.21079,-0.06691 -4.01719,-1.82319 -5.60175,-2.58479c-0.24682,-0.11852 -0.3287,-0.09983 -0.47492,0.10818c-0.55985,0.79754 -1.61099,2.07726 -1.80517,2.19774c-0.24659,0.15277 -0.58418,-0.16494 -1.44161,-1.35809c-0.37292,-0.51858 -0.42275,-0.68819 -0.42275,-1.43733c0,-0.70665 0.09569,-1.0788 0.56991,-2.2155c0.72198,-1.73085 0.78748,-1.83042 1.98391,-3.01127c1.45495,-1.43593 2.08615,-2.93771 2.08335,-4.95655c-0.00258,-1.90622 -0.57014,-3.3978 -1.79886,-4.72789c-1.29305,-1.39987 -2.81679,-2.07738 -4.66477,-2.07424c-2.78661,0.0047 -5.12613,1.67309 -6.15808,4.39191c-0.94283,2.48457 -0.25688,5.48002 1.69615,7.40414c0.69273,0.68263 0.76034,0.79721 0.69367,1.17615c-0.1137,0.64461 -1.2596,5.88645 -1.32721,6.0701c-0.06013,0.16307 0.12072,0.22553 0.99102,0.34087c0.25945,0.03439 1.46477,0.48381 2.67875,0.99851c1.21374,0.51493 3.07905,1.2252 4.14516,1.57894c1.62175,0.53809 1.97619,0.61647 2.16944,0.48007c0.12727,-0.08984 0.63448,-0.64969 1.12741,-1.24463c0.52031,-0.6277 0.96692,-1.05396 1.06519,-1.01629c0.17804,0.06808 6.44351,3.83751 7.84465,4.71928c0.44919,0.28262 0.81649,0.57599 0.81649,0.65202c0,0.07603 -0.16704,0.40193 -0.37175,0.72432c-0.20424,0.32215 -0.87334,1.40699 -1.48653,2.41017c-0.61342,1.00342 -1.74809,2.85328 -2.52154,4.111c-0.77391,1.25749 -2.21108,3.60964 -3.19415,5.22672c-0.9833,1.61708 -2.52832,4.1454 -3.43348,5.61883c-0.9054,1.4732 -1.6655,2.76087 -1.68937,2.86147c-0.04679,0.19699 0.56546,0.34578 7.59666,1.84635c2.04615,0.43679 3.74581,0.81953 3.77716,0.85088c0.06083,0.06059 -0.68875,1.17935 -6.78017,10.12147c-5.02272,7.3737 -5.77885,8.50603 -5.71943,8.56569c0.05685,0.05662 6.71419,3.24866 8.23652,3.94911c0.55704,0.25617 1.01278,0.51773 1.01278,0.58114c0,0.11393 -0.54464,1.04343 -6.33799,10.81677c-6.89293,11.62812 -7.67527,12.89965 -9.84143,15.98992c-0.53575,0.76409 -0.53809,0.76573 -0.68735,0.43866c-0.2143,-0.47048 0.1282,-1.99772 3.03319,-13.53576c1.36394,-5.41599 2.46188,-9.96589 2.43989,-10.1107c-0.03182,-0.21126 -0.48148,-0.43187 -2.26138,-1.1094c-4.70641,-1.79184 -5.61298,-2.14253 -5.65953,-2.18886c-0.02644,-0.02644 1.05278,-2.6839 2.39801,-5.90565c3.74581,-8.97066 3.8932,-9.34311 3.73107,-9.44347c-0.07978,-0.04913 -1.18824,-0.28378 -2.46328,-0.52124c-4.39923,-0.81953 -8.01519,-1.54596 -8.09568,-1.62667c-0.06831,-0.06808 0.89674,-3.64193 3.0381,-11.2531c0.24284,-0.86234 0.64547,-2.3325 0.8951,-3.26667c0.2494,-0.93441 1.0205,-3.7568 1.71323,-6.27226c2.10978,-7.65935 2.95692,-11.13612 2.91317,-11.95612l-0.03813,-0.7187l-1.01909,-0.51306l-1.01909,-0.51282l-0.61436,0.20424c-0.33783,0.1123 -1.63088,0.58629 -2.87317,1.05348l-2.25928,0.84901l0.04445,-9.09933c0.04375,-8.96785 0.0489,-9.11447 0.33806,-10.14465zM233.09233,175.51222c8.13809,-2.19026 17.60915,-5.34201 24.47564,-8.14488c0.79052,-0.32276 1.48232,-0.59155 1.5373,-0.59742c0.05498,-0.00576 0.08446,1.82284 0.06527,4.06356l-0.03439,4.07421l-2.28688,0.89066c-5.17156,2.01386 -11.61015,4.18142 -17.3642,5.84576c-1.24959,0.36146 -2.29755,0.6829 -2.32893,0.71402c-0.03121,0.03135 -0.09017,1.81196 -0.13078,3.9566c-0.10834,5.71826 0.2919,12.10328 0.82346,13.13781c0.67322,1.31013 2.80443,3.38435 3.74929,3.64895c0.30304,0.08469 1.60933,0.43047 2.90297,0.76806l2.35204,0.61412l0.21561,0.57482c0.11866,0.31631 0.70366,2.16733 1.30003,4.11335l1.0843,3.53806l1.1175,0.65623c3.66687,2.15283 4.78119,2.81328 4.82985,2.86194c0.02995,0.02971 -0.15979,0.48077 -0.42158,1.00202c-0.26179,0.52124 -0.7056,1.66597 -0.98634,2.54376l-0.51048,1.59602l1.46244,2.25857c0.80409,1.24229 1.5132,2.34701 1.57567,2.45486c0.0627,0.10785 -0.55751,-0.50955 -1.37798,-1.37213c-0.8207,-0.86234 -1.86039,-1.95514 -2.31028,-2.42819l-0.81829,-0.86048l0.65387,-2.38046c0.35954,-1.3092 0.65315,-2.42164 0.65221,-2.4717c-0.00234,-0.12072 -1.69405,-1.21889 -3.26092,-2.11656c-0.94278,-0.54019 -1.51054,-0.98658 -2.28618,-1.79769l-1.03203,-1.07922l-0.66473,-2.31823l-0.66456,-2.31846l-2.26437,-0.09475l-2.26437,-0.09452l-1.30487,-0.95078c-0.71765,-0.52288 -1.41373,-1.02869 -1.54687,-1.12414c-0.20373,-0.14622 -0.47562,-0.13055 -1.72053,0.09873c-0.81329,0.14996 -2.36067,0.40801 -3.4387,0.57365l-1.96005,0.30133l-0.08546,-0.29759c-0.14334,-0.49878 -0.75083,-5.08261 -0.95846,-7.23216c-0.37018,-3.83143 -0.51993,-9.85523 -0.34719,-13.96787c0.17236,-4.10282 0.46845,-7.57139 0.66276,-7.76581c0.06861,-0.06855 1.37778,-0.46182 2.90922,-0.87405zM290.82332,174.96688v-8.07034l0.35935,0.13995c8.15159,3.17515 19.69525,6.93656 27.06077,8.81777c0.88434,0.22576 1.52584,0.45972 1.59041,0.57927c0.16985,0.31513 0.51773,4.69869 0.66349,8.35817c0.13429,3.36961 0.00865,8.86725 -0.28168,12.34822c-0.26039,3.11975 -0.79029,7.44108 -0.92926,7.58028c-0.03369,0.03369 -0.29221,-0.02503 -0.57459,-0.13031c-0.28214,-0.10528 -1.7626,-0.63869 -3.29007,-1.1852l-2.77701,-0.99383l-1.5759,1.28463c-1.50876,1.22965 -2.02439,1.69592 -2.62868,1.90367c-0.45457,0.15628 -0.95944,0.16658 -1.97432,0.24518c-1.13513,0.0882 -2.143,0.22389 -2.23985,0.30133c-0.09686,0.07767 -0.63261,1.11151 -1.19058,2.29718c-0.58699,1.24743 -1.15128,2.2663 -1.33868,2.41743c-0.17827,0.14388 -0.88223,0.64711 -1.56467,1.11853l-1.24088,0.8572l0.01918,3.25872l0.01918,3.25919l-2.82263,1.34991c-1.55251,0.7428 -2.8472,1.32581 -2.87738,1.29586c-0.02995,-0.03018 0.88294,-0.7552 2.02883,-1.6117l2.08311,-1.55672l0.04047,-3.31791l0.04024,-3.31767l1.30311,-0.82024c0.71683,-0.45106 1.32745,-0.89861 1.35692,-0.9943c0.08867,-0.28753 1.95537,-5.05453 2.45533,-6.27015l0.46486,-1.13069l1.39131,-0.34625c0.76525,-0.19067 2.12124,-0.56008 3.01307,-0.82094l1.62175,-0.47422l1.4367,-1.18497c0.79029,-0.65132 1.57309,-1.30218 1.7399,-1.44582c0.28051,-0.24191 0.31817,-0.441 0.50393,-2.67875c0.24822,-2.98523 0.3776,-9.50594 0.23699,-11.93717l-0.10481,-1.81056l-2.4827,-0.70607c-1.36558,-0.38836 -2.8355,-0.81977 -3.26667,-0.95873c-0.43141,-0.13873 -2.019,-0.64571 -3.52823,-1.12671c-2.93002,-0.93323 -6.65242,-2.23729 -9.73475,-3.41032c-1.04225,-0.39632 -2.14464,-0.80901 -2.45018,-0.91686zM311.26559,206.8749c0.25384,-1.25305 0.39608,-1.68703 0.61085,-1.86413c0.22717,-0.18693 0.43047,-0.21594 1.07969,-0.15347c0.43983,0.04234 1.99117,0.18108 3.44752,0.30835c1.45612,0.12727 2.68881,0.27256 2.73911,0.32285c0.12727,0.12727 -0.25431,2.28969 -0.93628,5.3065c-2.11282,9.34826 -5.75826,18.20358 -10.83783,26.32593c-6.4662,10.33998 -15.56436,19.90768 -26.54139,27.91142c-2.0906,1.5242 -4.71086,3.25731 -4.92516,3.25731c-0.20097,0 -0.22904,-0.07908 -0.1757,-0.49013c0.16026,-1.23222 0.72081,-7.34961 0.72268,-7.88769c0.00023,-0.11604 0.2494,-0.38064 0.55353,-0.58792c0.30414,-0.20751 1.31832,-0.98938 2.25413,-1.73733c9.60397,-7.67807 17.19127,-16.3694 22.76775,-26.08074c4.42473,-7.70545 7.43944,-15.74077 9.24111,-24.63094zM231.60074,207.5171c0.26774,-0.00608 1.63337,-0.08563 3.03481,-0.17663c3.09607,-0.20143 3.51422,-0.23466 3.80196,-0.05662c0.05423,0.03346 0.10376,0.0744 0.16583,0.12329c0.18934,0.14879 0.34431,0.36169 0.34431,0.47305c0,0.26226 0.94893,4.03731 1.4388,5.7241c2.77593,9.55928 7.56145,19.02896 13.829,27.3649c5.11981,6.81011 11.89319,13.70585 18.26136,18.59193l0.79637,0.61108l0.22132,1.86998c0.12189,1.02845 0.30601,2.6343 0.40941,3.5687c0.10318,0.93417 0.21757,1.94859 0.25361,2.25389c0.09007,0.75988 -0.08048,0.73227 -1.54081,-0.2501c-5.09431,-3.4267 -11.2063,-8.49527 -16.0449,-13.30602c-12.9645,-12.89006 -21.05686,-27.18827 -24.84915,-43.90579c-0.49916,-2.20079 -0.64054,-2.72577 -0.47786,-2.84883c0.06756,-0.05124 0.18751,-0.03322 0.35594,-0.03697z" data-paper-data="{&quot;isPathIcon&quot;:true}" style="fill: rgb(255, 255, 255);"></path></g></g></g></svg>